<?xml version="1.0" encoding="UTF-8"?>
<svg id="Layer_2" data-name="Layer 2" xmlns="http://www.w3.org/2000/svg" xmlns:xlink="http://www.w3.org/1999/xlink" viewBox="0 0 800 800">
  <defs>
    <style>
      .cls-1 {
        fill: #fff;
      }

      .cls-2 {
        fill: url(#linear-gradient);
      }
    </style>
    <linearGradient id="linear-gradient" x1="107.73" y1="107.05" x2="686.45" y2="687.12" gradientUnits="userSpaceOnUse">
      <stop offset="0" stop-color="#f48a84"/>
      <stop offset="1" stop-color="#ff1d25"/>
    </linearGradient>
  </defs>
  <g id="BG">
    <rect class="cls-2" width="800" height="800" rx="98.04" ry="98.04"/>
  </g>
  <g id="Layer_1-2" data-name="Layer 1">
    <path class="cls-1" d="m400,74c-180.04,0-326,145.96-326,326s145.96,326,326,326,326-145.96,326-326S580.04,74,400,74Zm260.01,213.95l5.19,12.2-45.39,19.3-5.19-12.2,45.39-19.3Zm-42.11-74.54l8.67,10.03-37.31,32.26-8.67-10.03,37.31-32.26Zm-217.9-27.86c0,.31.07.62,0,.94-.07-.31,0-.62,0-.94Zm-172.56-23.11l32.26,37.31-10.03,8.67-32.26-37.31,10.03-8.67Zm-55.83,60.04l39.74,29.22-7.85,10.68-39.74-29.22,7.85-10.68Zm-38.92,72.22l46.3,17-4.57,12.45-46.3-17,4.57-12.45Zm5.31,210.35l-5.19-12.2,45.39-19.3,5.19,12.2-45.39,19.3Zm42.11,74.54l-8.67-10.03,37.31-32.26,8.67,10.03-37.31,32.26Zm41.9-179.6h-116v-14h116v14Zm20.16,233.25l-10.68-7.85,29.22-39.74,10.68,7.85-29.22,39.74Zm61.99-509.44l19.3,45.39-12.2,5.19-19.3-45.39,12.2-5.19Zm12,545.08l-12.45-4.57,17-46.3,12.45,4.57-17,46.3Zm97.85,27.11h-14v-116h14v116Zm-14.88-276.67c-13.09,0-23.7-9.77-23.7-21.83,0-8.58,5.37-15.99,13.18-19.56-8.18-24.85-13.64-78.41,11.4-190.52,24.61,113.1,19.02,166.61,10.94,191.17,7.1,3.77,11.87,10.83,11.87,18.92,0,12.06-10.61,21.83-23.7,21.83Zm82.74-295.22l12.45,4.57-17,46.3-12.45-4.57,17-46.3Zm12,545.08l-19.3-45.39,12.2-5.19,19.3,45.39-12.2,5.19Zm32.78-469.7l29.22-39.74,10.68,7.85-29.22,39.74-10.68-7.85Zm43.94,431.08l-32.26-37.31,10.03-8.67,32.26,37.31-10.03,8.67Zm55.83-60.04l-39.74-29.22,7.85-10.68,39.74,29.22-7.85,10.68Zm38.92-72.22l-46.3-17,4.57-12.45,46.3,17-4.57,12.45Zm-92.32-92.3v-14h116v14h-116Z"/>
  </g>
</svg>